REM DIRINDEX 1
REM DIRNAME cjc069
TITLE ""
FILE "Disk3Track34.mp3" MP3
  TRACK 01 AUDIO
    TITLE "1:cjc069_1275"
    INDEX 01 00:00:00
  TRACK 02 AUDIO
    TITLE "1:cjc069_1276"
    INDEX 01 00:12:61
  TRACK 03 AUDIO
    TITLE "1:cjc069_1277"
    INDEX 01 00:35:29
  TRACK 04 AUDIO
    TITLE "0:"
    INDEX 01 00:45:61
